<svg width="39" height="37" viewBox="0 0 39 37" fill="none" xmlns="http://www.w3.org/2000/svg">
<path d="M15.4015 33.2194H23.7549V21.0613H15.4015V33.2194ZM22.2408 31.7441H16.9155V22.5365H22.1886V31.7441H22.2408Z" fill="#81B3D2"/>
<path d="M37.9036 20.0431L39 18.9748L33.8313 13.9386V0.203483H26.6265V6.91843L19.4739 0L0 19.0257L1.09639 20.094L5.16867 16.126V35.3552H3.13253V36.8305H36.494V35.3552H33.8313V16.0752L37.9036 20.0431ZM28.1406 1.72961H32.2651V12.4633L28.1406 8.44455V1.72961ZM32.3173 35.3043H6.73494V14.5999L19.4739 2.13657L32.2651 14.5999V35.3043H32.3173Z" fill="#81B3D2"/>
<path d="M15.5582 13.8368C15.5582 16.0242 17.3855 17.8047 19.5783 17.8047C21.8233 17.8047 23.6506 16.0242 23.6506 13.8368C23.6506 11.6493 21.8233 9.91974 19.5783 9.91974C17.3333 9.91974 15.5582 11.6493 15.5582 13.8368ZM19.5783 11.2933C20.9879 11.2933 22.1888 12.4124 22.1888 13.8368C22.1888 15.2103 21.0402 16.3803 19.5783 16.3803C18.1687 16.3803 16.9679 15.2612 16.9679 13.8368C16.9679 12.4633 18.1687 11.2933 19.5783 11.2933Z" fill="#81B3D2"/>
<path d="M10.3895 21.0613H8.82324V23.0452H10.3895V21.0613Z" fill="#81B3D2"/>
<path d="M13.4698 21.0613H11.9036V23.0452H13.4698V21.0613Z" fill="#81B3D2"/>
<path d="M10.3895 24.1129H8.82324V26.0968H10.3895V24.1129Z" fill="#81B3D2"/>
<path d="M13.4698 24.1129H11.9036V26.0968H13.4698V24.1129Z" fill="#81B3D2"/>
<path d="M27.0443 21.0613H25.478V23.0452H27.0443V21.0613Z" fill="#81B3D2"/>
<path d="M30.1769 21.0613H28.6106V23.0452H30.1769V21.0613Z" fill="#81B3D2"/>
<path d="M27.0443 24.1129H25.478V26.0968H27.0443V24.1129Z" fill="#81B3D2"/>
<path d="M30.1769 24.1129H28.6106V26.0968H30.1769V24.1129Z" fill="#81B3D2"/>
</svg>
